<svg width="176" height="49" viewBox="0 0 176 49" fill="none" xmlns="http://www.w3.org/2000/svg">
    <g clip-path="url(#clip0_829_69)">
        <path d="M16.0713 0H32.1425V48.2138H16.0713V0Z" fill="#FE5000"/>
        <path d="M0 20.0891H4.01781V28.1247H0V20.0891Z" fill="#FE5000"/>
        <path d="M37.4996 16.0713H48.2138V32.1425H37.4996V16.0713Z" fill="#FE5000"/>
        <path d="M8.03563 16.0713H32.1425V32.1425H8.03563V16.0713Z" fill="#FE5000"/>
        <path d="M4.01781 16.0713H32.1425V20.0891H4.01781V16.0713Z" fill="#FE5000"/>
        <path d="M4.01781 28.1247H32.1425V32.1425H4.01781V28.1247Z" fill="#FE5000"/>
        <path d="M58.302 38.3544V26.0791H61.5479C62.3348 26.0791 62.9905 26.1447 63.5151 26.2758C64.0528 26.407 64.5118 26.5972 64.8921 26.8463C65.2725 27.0955 65.6069 27.4037 65.8954 27.7709C66.197 28.1381 66.4462 28.5512 66.6429 29.0103C66.8528 29.4693 67.0036 29.9676 67.0954 30.5053C67.2003 31.043 67.2528 31.6332 67.2528 32.2758C67.2265 33.2201 67.0954 34.066 66.8593 34.8135C66.6233 35.561 66.2692 36.1971 65.7971 36.7217C65.3249 37.2463 64.7151 37.6528 63.9676 37.9413C63.2331 38.2167 62.3413 38.3544 61.2922 38.3544H58.302ZM59.9348 37.0167H61.2332C62.243 37.0167 63.0692 36.8331 63.7118 36.4659C64.3544 36.0987 64.8266 35.5676 65.1282 34.8725C65.443 34.1643 65.5938 33.3184 65.5807 32.3348C65.5807 31.325 65.4364 30.4594 65.1479 29.7381C64.8725 29.0037 64.4331 28.4463 63.8299 28.066C63.2266 27.6726 62.4397 27.4758 61.4692 27.4758H59.9348V37.0167Z" fill="black"/>
        <path d="M69.7079 38.3348V36.9381H72.403V27.4758H69.8456V26.0791H76.7702V27.4758H74.0751V36.9577H76.8882V38.3348H69.7079Z" fill="black"/>
        <path d="M84.8318 38.5315C83.7433 38.5315 82.7991 38.2758 81.9991 37.7643C81.2122 37.2528 80.6024 36.5315 80.1696 35.6004C79.7499 34.6561 79.5401 33.5676 79.5401 32.3348C79.527 31.2725 79.6319 30.3742 79.8548 29.6398C80.0909 28.8922 80.3991 28.2758 80.7794 27.7906C81.1729 27.3053 81.5991 26.925 82.0581 26.6496C82.5302 26.3742 83.0024 26.184 83.4745 26.0791C83.9466 25.9742 84.3794 25.9218 84.7728 25.9218C85.3236 25.9218 85.8548 26.0136 86.3663 26.1972C86.8909 26.3676 87.3695 26.6037 87.8023 26.9053C88.2351 27.207 88.5761 27.5742 88.8253 28.007L87.7236 28.9906L87.5859 29.1283L87.4876 28.9906C87.4876 28.8857 87.4679 28.7939 87.4286 28.7152C87.3892 28.6234 87.2974 28.4988 87.1531 28.3414C86.9433 28.1185 86.7204 27.9414 86.4843 27.8103C86.2482 27.666 85.9859 27.5611 85.6974 27.4955C85.422 27.4168 85.1138 27.3775 84.7728 27.3775C84.4056 27.3775 84.045 27.4234 83.6909 27.5152C83.3368 27.607 83.0089 27.7644 82.7073 27.9873C82.4188 28.2103 82.1565 28.5053 81.9204 28.8725C81.6974 29.2398 81.527 29.6857 81.4089 30.2102C81.2909 30.7348 81.2319 31.3512 81.2319 32.0594C81.2319 32.8856 81.3171 33.6135 81.4876 34.243C81.6581 34.8594 81.9007 35.384 82.2155 35.8168C82.5302 36.2364 82.904 36.5577 83.3368 36.7807C83.7827 36.9905 84.281 37.0954 84.8318 37.0954C85.0286 37.0954 85.2318 37.0823 85.4417 37.0561C85.6646 37.0299 85.881 36.9905 86.0909 36.9381C86.3138 36.8856 86.5236 36.8135 86.7204 36.7217C86.9302 36.6299 87.1204 36.5184 87.2908 36.3872V33.7315H84.8515V32.2955H88.8646V37.2528C88.222 37.6856 87.5597 38.0069 86.8777 38.2167C86.2089 38.4266 85.5269 38.5315 84.8318 38.5315Z" fill="black"/>
        <path d="M91.3394 38.3348V36.9381H94.0345V27.4758H91.4771V26.0791H98.4017V27.4758H95.7066V36.9577H98.5197V38.3348H91.3394Z" fill="black"/>
        <path d="M104.909 38.3348V27.5349H101.093V26.0595H110.594V27.5349H106.601V38.3348H104.909Z" fill="black"/>
        <path d="M118.794 34.9959H114.572L115.044 33.7315H118.325L118.794 34.9959ZM116.689 29.325L113.325 38.3348H111.614L116.473 25.9021H116.945L121.804 38.3348H120.033L116.689 29.325Z" fill="black"/>
        <path d="M123.452 26.0791H125.38V26.2365C125.301 26.3152 125.249 26.4004 125.223 26.4922C125.21 26.584 125.203 26.7414 125.203 26.9644V36.9184H131.754V38.3348H123.452V26.0791Z" fill="black"/>
        <path d="M144.71 26.0791H146.638V26.2365C146.559 26.3152 146.507 26.4004 146.48 26.4922C146.467 26.584 146.461 26.7414 146.461 26.9644V31.2135H151.674V26.0791H153.602V26.2365C153.523 26.3152 153.471 26.4004 153.444 26.4922C153.431 26.584 153.425 26.7414 153.425 26.9644V38.3348H151.654V32.6102H146.461V38.3348H144.71V26.0791Z" fill="black"/>
        <path d="M159.991 38.5708C158.536 38.5708 157.434 38.1708 156.686 37.3708C155.939 36.5709 155.565 35.4496 155.565 34.0069V26.0791H157.414V26.2365C157.336 26.3152 157.283 26.4004 157.257 26.4922C157.244 26.584 157.237 26.7414 157.237 26.9644V34.0266C157.237 34.9971 157.447 35.7643 157.867 36.3282C158.299 36.879 159.014 37.1545 160.011 37.1545C161.021 37.1545 161.742 36.879 162.175 36.3282C162.608 35.7643 162.824 34.9774 162.824 33.9676V26.0791H164.457V33.9479C164.457 35.0102 164.267 35.8823 163.886 36.5643C163.519 37.2331 163.001 37.7381 162.332 38.079C161.663 38.4069 160.883 38.5708 159.991 38.5708Z" fill="black"/>
        <path d="M166.341 38.3348V26.0791H170.256C171.056 26.0791 171.745 26.1513 172.322 26.2955C172.899 26.4398 173.371 26.6496 173.738 26.925C174.105 27.1873 174.374 27.5021 174.545 27.8693C174.728 28.2365 174.82 28.643 174.82 29.0889C174.82 29.4693 174.741 29.843 174.584 30.2102C174.44 30.5643 174.223 30.8791 173.935 31.1545C173.646 31.4299 173.292 31.6397 172.873 31.784C173.24 31.902 173.574 32.066 173.876 32.2758C174.177 32.4725 174.44 32.7086 174.663 32.984C174.886 33.2594 175.056 33.5545 175.174 33.8692C175.292 34.184 175.351 34.5184 175.351 34.8725C175.351 35.3971 175.253 35.8758 175.056 36.3086C174.859 36.7282 174.551 37.0889 174.132 37.3905C173.725 37.6922 173.194 37.9282 172.538 38.0987C171.896 38.2561 171.128 38.3348 170.237 38.3348H166.341ZM168.033 36.8987H170.492C171.135 36.8987 171.686 36.8266 172.145 36.6823C172.604 36.5381 172.958 36.3151 173.207 36.0135C173.456 35.6987 173.581 35.2922 173.581 34.7938C173.581 34.3348 173.463 33.9348 173.227 33.5938C172.991 33.2397 172.623 32.9643 172.125 32.7676C171.627 32.5709 170.964 32.4725 170.138 32.4725H168.033V36.8987ZM168.033 31.0955H170.04C170.8 31.0955 171.404 31.0168 171.85 30.8594C172.296 30.702 172.617 30.4857 172.814 30.2102C173.01 29.9348 173.109 29.6201 173.109 29.266C173.109 29.0037 173.056 28.7676 172.951 28.5578C172.846 28.3348 172.682 28.1447 172.459 27.9873C172.237 27.8299 171.941 27.7053 171.574 27.6135C171.22 27.5217 170.787 27.4758 170.276 27.4758H168.033V31.0955Z" fill="black"/>
        <path d="M57.9873 22.1343V9.87864H61.6266C62.4266 9.87864 63.102 9.94422 63.6528 10.0754C64.2037 10.2065 64.6692 10.4032 65.0495 10.6655C65.443 10.9147 65.7905 11.2229 66.0922 11.5901C66.3938 11.9573 66.6561 12.377 66.879 12.8491C67.102 13.3081 67.2725 13.8065 67.3905 14.3442C67.5217 14.8819 67.5872 15.4655 67.5872 16.095C67.5872 17.0261 67.4626 17.8655 67.2135 18.613C66.9643 19.3474 66.584 19.9769 66.0725 20.5015C65.5741 21.0261 64.9315 21.4327 64.1446 21.7212C63.3709 21.9966 62.4463 22.1343 61.3709 22.1343H57.9873ZM60.7611 19.931H61.3315C62.2233 19.931 62.925 19.7671 63.4364 19.4392C63.961 19.0982 64.3282 18.6392 64.5381 18.0622C64.7479 17.472 64.8528 16.8163 64.8528 16.095C64.8528 15.3081 64.7545 14.613 64.5577 14.0098C64.3741 13.4065 64.0397 12.9344 63.5545 12.5934C63.0823 12.2393 62.4135 12.0622 61.5479 12.0622H60.7611V19.931Z" fill="black"/>
        <path d="M69.4326 22.1343V19.8917H72.0883V12.1212H69.5703V9.87864H77.3604V12.1212H74.7243V19.8917H77.4587V22.1343H69.4326Z" fill="black"/>
        <path d="M85.8414 19.695H82.6674L83.2857 17.7278H85.2436L85.8414 19.695ZM84.2811 14.5606L81.9008 22.1343H79.068L83.4548 9.85897H85.0679L89.4745 22.1343H86.5827L84.2811 14.5606Z" fill="black"/>
        <path d="M95.628 22.3704C94.4739 22.3704 93.4771 22.1081 92.6378 21.5835C91.8116 21.0458 91.1755 20.2982 90.7296 19.3409C90.2968 18.3835 90.0805 17.2753 90.0805 16.0163C90.0805 14.9802 90.205 14.095 90.4542 13.3606C90.7034 12.6262 91.0313 12.0163 91.4378 11.5311C91.8575 11.0458 92.3099 10.6655 92.7952 10.3901C93.2935 10.1147 93.7853 9.92454 94.2706 9.81963C94.7558 9.70159 95.2017 9.64258 95.6083 9.64258C96.2116 9.64258 96.7886 9.72782 97.3394 9.89831C97.9034 10.0688 98.4083 10.3114 98.8542 10.6262C99.3132 10.9409 99.6869 11.3409 99.9755 11.8262L98.4411 13.4983L98.323 13.636L98.1656 13.4786C98.1525 13.3737 98.1329 13.2753 98.1066 13.1835C98.0804 13.0786 98.0017 12.9409 97.8706 12.7704C97.7132 12.613 97.5361 12.4753 97.3394 12.3573C97.1427 12.2262 96.9066 12.1212 96.6312 12.0426C96.3689 11.9639 96.0542 11.9245 95.687 11.9245C95.3985 11.9245 95.1165 11.9704 94.8411 12.0622C94.5657 12.154 94.3034 12.3049 94.0542 12.5147C93.8181 12.7114 93.6083 12.9671 93.4247 13.2819C93.2542 13.5835 93.1165 13.9507 93.0116 14.3835C92.9198 14.8032 92.8739 15.295 92.8739 15.8589C92.8739 16.5933 92.9394 17.2294 93.0706 17.7671C93.2017 18.2917 93.3853 18.731 93.6214 19.0851C93.8706 19.4392 94.1657 19.7081 94.5067 19.8917C94.8476 20.0622 95.2214 20.1474 95.628 20.1474C95.7853 20.1474 95.9427 20.1409 96.1001 20.1277C96.2575 20.1015 96.4148 20.0687 96.5722 20.0294C96.7296 19.99 96.8804 19.9376 97.0247 19.872C97.1689 19.7933 97.3132 19.7015 97.4575 19.5966V17.8065H95.3329V15.5442H99.9951V21.0917C99.3525 21.5638 98.6574 21.8982 97.9099 22.0949C97.1624 22.2785 96.4017 22.3704 95.628 22.3704Z" fill="black"/>
        <path d="M101.152 9.87864H104.122L108.293 17.3737L108.116 9.87864H110.791V10.095C110.726 10.1737 110.68 10.259 110.654 10.3508C110.64 10.4426 110.634 10.5999 110.634 10.8229V22.1343H107.939L103.65 14.1475V22.1343H101.152V9.87864Z" fill="black"/>
        <path d="M116.768 22.3704C115.64 22.3704 114.696 22.1212 113.935 21.6228C113.174 21.1245 112.597 20.4032 112.204 19.4589C111.823 18.5015 111.633 17.3409 111.633 15.977C111.633 14.6393 111.823 13.5048 112.204 12.5737C112.597 11.6294 113.174 10.9081 113.935 10.4098C114.696 9.91143 115.64 9.66225 116.768 9.66225C117.882 9.66225 118.814 9.91143 119.561 10.4098C120.322 10.9081 120.899 11.6294 121.292 12.5737C121.686 13.5048 121.882 14.6393 121.882 15.977C121.882 17.3409 121.686 18.5015 121.292 19.4589C120.899 20.4163 120.322 21.1441 119.561 21.6425C118.814 22.1277 117.882 22.3704 116.768 22.3704ZM116.768 20.1474C117.266 20.1474 117.686 20.0032 118.027 19.7146C118.381 19.413 118.65 18.954 118.833 18.3376C119.03 17.7212 119.128 16.9278 119.128 15.9573C119.128 15.0655 119.03 14.318 118.833 13.7147C118.65 13.0983 118.381 12.6393 118.027 12.3376C117.686 12.036 117.266 11.8852 116.768 11.8852C116.256 11.8852 115.823 12.036 115.469 12.3376C115.115 12.6393 114.846 13.0983 114.663 13.7147C114.479 14.318 114.387 15.0655 114.387 15.9573C114.387 16.9278 114.479 17.7212 114.663 18.3376C114.846 18.954 115.115 19.413 115.469 19.7146C115.823 20.0032 116.256 20.1474 116.768 20.1474Z" fill="black"/>
        <path d="M127.308 22.3704C126.416 22.3704 125.557 22.2523 124.731 22.0163C123.905 21.7802 123.229 21.4195 122.705 20.9343L124.062 18.731L124.16 18.5737L124.357 18.6917C124.383 18.7835 124.416 18.8753 124.456 18.9671C124.508 19.0589 124.619 19.1769 124.79 19.3212C125.144 19.531 125.538 19.7081 125.97 19.8523C126.403 19.9966 126.862 20.0753 127.347 20.0884C127.662 20.0884 127.944 20.0687 128.193 20.0294C128.456 19.99 128.678 19.9245 128.862 19.8327C129.046 19.7409 129.19 19.6163 129.295 19.4589C129.4 19.2884 129.452 19.0917 129.452 18.8687C129.452 18.7376 129.433 18.613 129.393 18.495C129.354 18.3769 129.282 18.2589 129.177 18.1409C129.085 18.0097 128.941 17.8786 128.744 17.7474C128.56 17.6163 128.318 17.472 128.016 17.3147C127.728 17.1573 127.367 16.9933 126.934 16.8229C126.003 16.4294 125.269 16.0491 124.731 15.6819C124.193 15.3147 123.806 14.9081 123.57 14.4622C123.347 14.0163 123.236 13.4852 123.236 12.8688C123.236 12.2524 123.426 11.7081 123.806 11.236C124.2 10.7508 124.724 10.3639 125.38 10.0754C126.049 9.78684 126.797 9.64258 127.623 9.64258C128.213 9.64258 128.757 9.70159 129.256 9.81963C129.767 9.93766 130.239 10.1147 130.672 10.3508C131.118 10.5868 131.524 10.8885 131.892 11.2557L130.239 13.0655L130.121 13.2032L129.964 13.0655C129.951 12.9606 129.924 12.8622 129.885 12.7704C129.859 12.6786 129.767 12.554 129.61 12.3967C129.36 12.1999 129.078 12.0753 128.764 12.0229C128.462 11.9573 128.121 11.9245 127.741 11.9245C127.465 11.9245 127.216 11.9508 126.993 12.0032C126.783 12.0426 126.6 12.1081 126.442 12.1999C126.298 12.2786 126.18 12.3704 126.088 12.4753C126.01 12.5803 125.97 12.6917 125.97 12.8098C125.97 12.9278 125.983 13.0393 126.01 13.1442C126.049 13.236 126.115 13.3344 126.206 13.4393C126.311 13.5442 126.462 13.6557 126.659 13.7737C126.856 13.8917 127.105 14.0294 127.406 14.1868C127.721 14.3311 128.115 14.5016 128.587 14.6983C129.269 15.013 129.846 15.3147 130.318 15.6032C130.79 15.8917 131.164 16.1933 131.439 16.5081C131.728 16.8097 131.931 17.1442 132.049 17.5114C132.167 17.8786 132.226 18.2917 132.226 18.7507C132.226 19.3671 132.056 19.9507 131.715 20.5015C131.374 21.0523 130.836 21.5048 130.101 21.8589C129.38 22.1999 128.449 22.3704 127.308 22.3704Z" fill="black"/>
        <path d="M136.904 22.1343V12.1803H133.343V9.87864H143.356V12.1803H139.579V22.1343H136.904Z" fill="black"/>
        <path d="M147.995 22.1343V17.3343L143.982 9.87864H146.835L149.412 14.5212L151.674 9.87864H154.448L150.73 17.354V22.1343H147.995Z" fill="black"/>
        <path d="M158.831 16.9409L158.004 18.0228V22.1343H155.309V9.87864H158.162V10.095C158.096 10.1737 158.05 10.259 158.024 10.3508C158.011 10.4426 158.004 10.5999 158.004 10.8229V14.5606L161.998 9.76061C162.116 9.78684 162.26 9.80651 162.431 9.81963C162.614 9.83274 162.798 9.84586 162.981 9.85897C163.178 9.87209 163.355 9.87864 163.513 9.87864C163.67 9.87864 163.788 9.87864 163.867 9.87864H165.185L160.798 14.954L165.421 22.1146L162.273 22.213L158.831 16.9409Z" fill="black"/>
        <path d="M172.367 19.695H169.193L169.812 17.7278H171.77L172.367 19.695ZM170.807 14.5606L168.427 22.1343H165.594L169.981 9.85897H171.594L176 22.1343H173.109L170.807 14.5606Z" fill="black"/>
    </g>
    <defs>
        <clipPath id="clip0_829_69">
            <rect width="176" height="48.2138" fill="white"/>
        </clipPath>
    </defs>
</svg>
